<svg xmlns="http://www.w3.org/2000/svg" version="1.1" xmlns:xlink="http://www.w3.org/1999/xlink" xmlns:svgjs="http://svgjs.dev/svgjs" width="1500" height="928" viewBox="0 0 1500 928"><g transform="matrix(1,0,0,1,-0.9090909090909918,1.4242397167997183)"><svg viewBox="0 0 396 245" data-background-color="#282634" preserveAspectRatio="xMidYMid meet" height="928" width="1500" xmlns="http://www.w3.org/2000/svg" xmlns:xlink="http://www.w3.org/1999/xlink"><g id="tight-bounds" transform="matrix(1,0,0,1,0.2400000000000091,0.23537720826239195)"><svg viewBox="0 0 395.52 245.00325830508902" height="245.00325830508902" width="395.52"><g><svg viewBox="0 0 397.4975999999999 246.22827459661443" height="245.00325830508902" width="395.52"><g><rect width="397.4975999999999" height="6.4995754348544015" x="0" y="111.94710862595325" fill="#dcdcdc" opacity="1" stroke-width="0" stroke="transparent" fill-opacity="1" class="rect-qz-0" data-fill-palette-color="secondary" rx="1%" id="qz-0" data-palette-color="#dcdcdc"></rect></g><g transform="matrix(1,0,0,1,0.9887999999999693,135.46127944000767)"><svg viewBox="0 0 395.52 110.7669951566068" height="110.7669951566068" width="395.52"><g id="textblocktransform"><svg viewBox="0 0 395.52 110.7669951566068" height="110.7669951566068" width="395.52" id="textblock"><g><svg viewBox="0 0 395.52 72.07253333333334" height="72.07253333333334" width="395.52"><g transform="matrix(1,0,0,1,0,0)"><svg width="395.52" viewBox="4.1 -33.45 236.23000000000002 43.050000000000004" height="72.07253333333334" data-palette-color="#ff4057"><path d="M4.1 0L4.1-30.7 7.25-30.7 7.25-2.9 21.35-2.9 21.35 0 4.1 0ZM34.9 0.45Q30.05 0.45 27.8-2.68 25.55-5.8 25.55-11.45L25.55-11.45Q25.55-17.35 27.95-20.68 30.35-24 36.05-24L36.05-24Q40.85-24 43.12-20.78 45.4-17.55 45.4-11.85L45.4-11.85Q45.4-6 43-2.78 40.6 0.45 34.9 0.45L34.9 0.45ZM35.75-2.2Q38.75-2.2 40.85-3.25L40.85-3.25Q42.4-6 42.4-11.25L42.4-11.25Q42.4-16.55 40.82-18.93 39.25-21.3 35.2-21.3L35.2-21.3Q32.05-21.3 30.1-20.25L30.1-20.25Q29.4-18.95 28.97-16.78 28.55-14.6 28.55-12L28.55-12Q28.55-8.5 29.2-6.38 29.85-4.25 31.42-3.23 33-2.2 35.75-2.2L35.75-2.2ZM60.45 9.6Q58.1 9.6 56 9.1 53.9 8.6 52.45 7.75L52.45 7.75 53.35 5.4Q54.8 6.1 56.62 6.5 58.45 6.9 60.2 6.9L60.2 6.9Q62.4 6.9 63.92 6.6 65.45 6.3 66.65 5.6L66.65 5.6 66.65-0.75 66.8-3.9 66.45-3.9Q63.2-0.2 59.2-0.2L59.2-0.2Q54.9-0.2 52.92-3.28 50.95-6.35 50.95-11.3L50.95-11.3Q50.95-17.25 52.97-20.53 55-23.8 59.75-23.8L59.75-23.8Q64.09-23.8 66.45-19.8L66.45-19.8 66.75-19.8 67-23.45 69.55-23.45 69.55 2.8Q69.55 6.25 67.09 7.93 64.65 9.6 60.45 9.6L60.45 9.6ZM59.85-2.8Q63.75-2.8 66.55-6.45L66.55-6.45 66.55-17.45Q63.75-21.2 60-21.2L60-21.2Q56.65-21.2 55.32-18.82 54-16.45 54-11.6L54-11.6Q54-7.15 55.42-4.98 56.85-2.8 59.85-2.8L59.85-2.8ZM77.34-27.7L77.34-32.35 80.49-32.35 80.49-27.7 77.34-27.7ZM77.39 0L77.39-23.35 80.34-23.35 80.34 0 77.39 0ZM105.34 0.35Q104.29 0.35 103.64-0.05 102.99-0.45 102.59-1.35L102.59-1.35 100.29-6.55Q99.24-8.9 97.94-9.98 96.64-11.05 94.09-11.05L94.09-11.05 91.19-11.05 91.19 0 88.24 0 88.24-33.45 91.19-33.45 91.19-13.5 93.84-13.5Q96.39-13.5 97.69-14.58 98.99-15.65 99.84-17.65L99.84-17.65 102.54-23.7 105.44-22.6 102.79-16.65Q101.99-14.95 101.02-13.98 100.04-13 98.29-12.45L98.29-12.45 98.29-12.15Q100.14-11.6 101.09-10.68 102.04-9.75 102.89-7.95L102.89-7.95 105.59-1.9 107.54-1.55 107.54 0.05Q106.44 0.35 105.34 0.35L105.34 0.35ZM127.69 0L129.09-30.7 132.44-30.7 140.94-12.6 141.28-12.6 149.74-30.7 153.13-30.7 154.49 0 151.34 0 150.63-15.95 150.44-24.95 150.09-25.05 142.44-9.35 139.73-9.35 132.09-25.05 131.73-24.95 131.59-15.95 130.88 0 127.69 0ZM170.98 0.45Q160.88 0.45 160.88-11.55L160.88-11.55Q160.88-17.3 163.46-20.55 166.03-23.8 170.98-23.8L170.98-23.8Q175.08-23.8 177.28-21.35 179.48-18.9 179.48-14.55L179.48-14.55Q179.48-14.05 179.38-12.95L179.38-12.95 176.83-10.4 163.83-10.5Q163.93-6.35 165.71-4.28 167.48-2.2 171.13-2.2L171.13-2.2Q173.33-2.2 174.88-2.68 176.43-3.15 178.08-4.15L178.08-4.15 179.08-1.8Q177.23-0.7 175.41-0.13 173.58 0.45 170.98 0.45L170.98 0.45ZM163.78-12.75L176.38-12.95Q176.68-14.15 176.68-15.35L176.68-15.35Q176.68-18.05 175.18-19.6 173.68-21.15 170.78-21.15L170.78-21.15Q167.08-21.15 165.53-19.1 163.98-17.05 163.78-12.75L163.78-12.75ZM193.98 0.3Q192.13 0.3 190.78-0.05L190.78-0.05Q187.33-1.95 187.33-4.7L187.33-4.7 187.33-20.85 183.23-20.85 183.63-23.4 187.33-23.4 187.33-29.8 190.23-29.8 190.23-23.4 198.03-23.4 197.63-20.85 190.23-20.85 190.23-5.35Q190.23-4.05 190.68-2.85L190.68-2.85Q192.08-2.4 193.48-2.4L193.48-2.4Q194.38-2.4 195.56-2.68 196.73-2.95 197.68-3.35L197.68-3.35 198.53-0.85Q197.68-0.4 196.38-0.05 195.08 0.3 193.98 0.3L193.98 0.3ZM213.03 0.45Q202.93 0.45 202.93-11.55L202.93-11.55Q202.93-17.3 205.5-20.55 208.08-23.8 213.03-23.8L213.03-23.8Q217.13-23.8 219.33-21.35 221.53-18.9 221.53-14.55L221.53-14.55Q221.53-14.05 221.43-12.95L221.43-12.95 218.88-10.4 205.88-10.5Q205.98-6.35 207.75-4.28 209.53-2.2 213.18-2.2L213.18-2.2Q215.38-2.2 216.93-2.68 218.48-3.15 220.13-4.15L220.13-4.15 221.13-1.8Q219.28-0.7 217.45-0.13 215.63 0.45 213.03 0.45L213.03 0.45ZM205.83-12.75L218.43-12.95Q218.73-14.15 218.73-15.35L218.73-15.35Q218.73-18.05 217.23-19.6 215.73-21.15 212.83-21.15L212.83-21.15Q209.13-21.15 207.58-19.1 206.03-17.05 205.83-12.75L205.83-12.75ZM227.93 0L227.93-23.3 230.38-23.3 230.63-18.8 231.08-18.8Q232.23-21 234.3-22.3 236.38-23.6 238.73-23.6L238.73-23.6Q239.08-23.6 239.6-23.23 240.13-22.85 240.33-22.5L240.33-22.5 239.98-20.15 237.93-20.15Q235.38-20.15 233.55-19 231.73-17.85 230.93-15.75L230.93-15.75 230.93 0 227.93 0Z" opacity="1" transform="matrix(1,0,0,1,0,0)" fill="#ff4057" class="wordmark-text-0" data-fill-palette-color="primary" id="text-0"></path></svg></g></svg></g><g transform="matrix(1,0,0,1,0,89.08712871253334)"><svg viewBox="0 0 395.52 21.679866444073454" height="21.679866444073454" width="395.52"><g transform="matrix(1,0,0,1,0,0)"><svg width="395.52" viewBox="0.12 -39.7 965.11 52.910000000000004" height="21.679866444073454" data-palette-color="#dcdcdc"><path d="M5.62-6.15L5.62-13.77 0.12-13.77Q0.2-14.58 0.54-15.3 0.88-16.02 1.43-16.54 1.98-17.07 2.67-17.38 3.37-17.7 4.15-17.7L4.15-17.7 5.62-17.7 5.62-30.81Q5.62-32.1 5.97-33.24 6.32-34.38 6.95-35.22 7.57-36.06 8.41-36.54 9.25-37.01 10.21-37.01L10.21-37.01 25.54-37.01 25.54-32.89 11.47-32.89 11.47-17.7 21.14-17.7 21.14-13.77 11.47-13.77 11.47-4.17 27.71-4.17Q27.61-3.32 27.23-2.55 26.86-1.78 26.28-1.22 25.71-0.66 24.98-0.33 24.24 0 23.44 0L23.44 0 10.25 0Q9.28 0 8.44-0.49 7.59-0.98 6.97-1.81 6.35-2.64 5.98-3.76 5.62-4.88 5.62-6.15L5.62-6.15ZM33.98 0L33.98-25.56 39.82-25.56 39.82-15.75 45.75-23.71Q46.53-24.63 47.37-25.11 48.22-25.59 49.44-25.59L49.44-25.59Q50.41-25.59 51.3-25.1 52.19-24.61 52.87-23.77 53.54-22.92 53.94-21.8 54.34-20.68 54.34-19.38L54.34-19.38 54.34-16.63 59.47-23.71Q60.25-24.61 61.23-25.1 62.2-25.59 63.4-25.59L63.4-25.59Q64.38-25.59 65.27-25.1 66.16-24.61 66.83-23.77 67.5-22.92 67.91-21.8 68.31-20.68 68.31-19.38L68.31-19.38 68.31-4.17 72.65-4.17Q72.56-3.32 72.18-2.55 71.8-1.78 71.23-1.22 70.65-0.66 69.92-0.33 69.19 0 68.38 0L68.38 0 67.06 0Q66.11 0 65.27-0.49 64.43-0.98 63.82-1.82 63.21-2.66 62.85-3.78 62.5-4.91 62.5-6.2L62.5-6.2 62.5-20.87 54.34-10.99 54.34 0 48.51 0 48.51-20.87 39.82-10.13 39.82 0 33.98 0ZM83.47-2.73L83.49 6.96Q83.49 8.25 83.14 9.39 82.78 10.52 82.16 11.36 81.54 12.21 80.71 12.71 79.88 13.21 78.93 13.21L78.93 13.21 77.66 13.21 77.66-25.56 94.77-25.56Q95.72-25.56 96.55-25.07 97.38-24.58 98.02-23.74 98.65-22.9 99.02-21.78 99.38-20.65 99.38-19.36L99.38-19.36 99.38-4.17 104.54-4.17Q104.44-3.32 104.06-2.55 103.68-1.78 103.11-1.22 102.53-0.66 101.8-0.33 101.07 0 100.26 0L100.26 0 87.4 0Q86.23 0 85.2-0.74 84.17-1.49 83.47-2.73L83.47-2.73ZM83.47-4.2L93.55-4.2 93.55-21.39 83.47-21.39 83.47-4.2ZM108.78-6.15L108.78-19.36Q108.78-20.65 109.15-21.79 109.51-22.92 110.14-23.77 110.76-24.61 111.59-25.09 112.42-25.56 113.37-25.56L113.37-25.56 133.83-25.56Q133.73-24.71 133.35-23.94 132.98-23.17 132.4-22.61 131.83-22.05 131.1-21.72 130.36-21.39 129.56-21.39L129.56-21.39 128.02-21.39Q128.48-21.04 128.94-20.51 129.39-19.97 129.74-19.26 130.1-18.55 130.3-17.71 130.51-16.87 130.51-15.89L130.51-15.89 130.51-6.15Q130.51-4.88 130.14-3.76 129.78-2.64 129.14-1.81 128.51-0.98 127.67-0.49 126.82 0 125.87 0L125.87 0 113.37 0Q112.42 0 111.59-0.49 110.76-0.98 110.14-1.81 109.51-2.64 109.15-3.76 108.78-4.88 108.78-6.15L108.78-6.15ZM114.62-4.17L124.68-4.17 124.68-21.39 114.62-21.39 114.62-4.17ZM139.61-6.2L139.61-25.56 145.45-25.56 145.45-4.2 154.24-4.2 154.24-25.56 160.1-25.56 160.1-4.2 168.89-4.2 168.89-25.56 179.7-25.56Q179.6-24.71 179.23-23.94 178.85-23.17 178.27-22.61 177.7-22.05 176.97-21.72 176.24-21.39 175.43-21.39L175.43-21.39 174.72-21.39 174.72-6.2Q174.72-4.91 174.36-3.78 173.99-2.66 173.35-1.82 172.72-0.98 171.87-0.49 171.01 0 170.06 0L170.06 0 161.15 0Q159.95 0 158.88-0.82 157.8-1.64 157.09-3.03L157.09-3.03Q156.39-1.64 155.31-0.82 154.24 0 153.04 0L153.04 0 144.28 0Q143.32 0 142.47-0.49 141.62-0.98 140.98-1.82 140.35-2.66 139.98-3.78 139.61-4.91 139.61-6.2L139.61-6.2ZM183.97-6.2L183.97-19.36Q183.97-20.65 184.34-21.78 184.7-22.9 185.33-23.74 185.95-24.58 186.8-25.07 187.66-25.56 188.61-25.56L188.61-25.56 201.57-25.56Q202.53-25.56 203.37-25.07 204.21-24.58 204.85-23.74 205.48-22.9 205.85-21.78 206.21-20.65 206.21-19.36L206.21-19.36 206.21-11.23 189.81-11.23 189.81-4.17 207.73-4.17Q207.63-3.32 207.25-2.55 206.87-1.78 206.3-1.22 205.72-0.66 204.99-0.33 204.26 0 203.45 0L203.45 0 188.61 0Q187.66 0 186.8-0.49 185.95-0.98 185.33-1.82 184.7-2.66 184.34-3.78 183.97-4.91 183.97-6.2L183.97-6.2ZM189.81-14.65L200.38-14.65 200.38-21.39 189.81-21.39 189.81-14.65ZM215.1 0L215.1-28.25 220.96-28.25 220.96-25.56 239.36-25.56Q239.27-24.71 238.89-23.94 238.51-23.17 237.95-22.61 237.39-22.05 236.67-21.72 235.95-21.39 235.19-21.39L235.19-21.39 235.19-4.17 240.85-4.17Q240.76-3.32 240.38-2.55 240-1.78 239.41-1.22 238.83-0.66 238.07-0.33 237.31 0 236.46 0L236.46 0 234.02 0Q233.07 0 232.21-0.49 231.36-0.98 230.72-1.82 230.09-2.66 229.72-3.78 229.36-4.91 229.36-6.2L229.36-6.2 229.36-21.39 220.91-21.39 220.91 0 215.1 0ZM248.79-31.47L248.79-31.47Q247.93-31.47 247.19-31.79 246.44-32.1 245.88-32.67 245.32-33.23 245-33.97 244.68-34.72 244.68-35.57L244.68-35.57Q244.68-36.43 245-37.17 245.32-37.92 245.88-38.48 246.44-39.04 247.19-39.37 247.93-39.7 248.79-39.7L248.79-39.7Q249.64-39.7 250.39-39.37 251.13-39.04 251.69-38.48 252.25-37.92 252.58-37.17 252.91-36.43 252.91-35.57L252.91-35.57Q252.91-34.72 252.58-33.97 252.25-33.23 251.69-32.67 251.13-32.1 250.37-31.79 249.62-31.47 248.79-31.47ZM245.93-6.2L245.93-25.56 251.76-25.56 251.76-4.17 256.99-4.17Q256.92-3.32 256.54-2.55 256.16-1.78 255.59-1.22 255.01-0.66 254.28-0.33 253.55 0 252.74 0L252.74 0 250.59 0Q249.64 0 248.79-0.49 247.93-0.98 247.3-1.82 246.66-2.66 246.3-3.78 245.93-4.91 245.93-6.2L245.93-6.2ZM261.85 0L261.85-25.56 267.68-25.56 267.68-15.89 275.22-23.71Q276.01-24.61 276.85-25.1 277.69-25.59 278.86-25.59L278.86-25.59Q279.84-25.59 280.74-25.1 281.65-24.61 282.33-23.77 283.01-22.92 283.42-21.8 283.82-20.68 283.82-19.38L283.82-19.38 283.82-4.2 288.75-4.2Q288.65-3.32 288.27-2.56 287.9-1.81 287.32-1.23 286.75-0.66 286.02-0.33 285.28 0 284.48 0L284.48 0 282.57 0Q281.6 0 280.75-0.49 279.91-0.98 279.29-1.82 278.67-2.66 278.3-3.78 277.93-4.91 277.93-6.2L277.93-6.2 277.93-21.04 267.68-10.5 267.68 0 261.85 0ZM293.17-6.2L293.17-19.36Q293.17-20.65 293.53-21.78 293.9-22.9 294.52-23.74 295.14-24.58 296-25.07 296.85-25.56 297.8-25.56L297.8-25.56 314.89-25.56 314.89-4.17 320.05-4.17Q319.95-3.32 319.57-2.55 319.19-1.78 318.62-1.22 318.04-0.66 317.31-0.33 316.58 0 315.77 0L315.77 0 314.89 0 314.89 6.96Q314.89 8.25 314.53 9.39 314.16 10.52 313.53 11.36 312.89 12.21 312.06 12.71 311.23 13.21 310.28 13.21L310.28 13.21 298.44 13.21 298.44 8.98 309.06 8.98 309.06-2.71Q308.35-1.44 307.33-0.72 306.3 0 305.18 0L305.18 0 297.8 0Q296.85 0 296-0.49 295.14-0.98 294.52-1.82 293.9-2.66 293.53-3.78 293.17-4.91 293.17-6.2L293.17-6.2ZM298.98-4.17L309.06-4.17 309.06-21.39 298.98-21.39 298.98-4.17ZM348.75 0L339.94-32.84 335.4-32.84Q335.49-33.69 335.87-34.45 336.25-35.21 336.83-35.78 337.4-36.35 338.13-36.68 338.86-37.01 339.67-37.01L339.67-37.01 344.87-37.01 352.68-3.71 360.28-37.01 366.18-37.01 356.61 0 348.75 0ZM373.16-6.15L373.16-19.36Q373.16-20.65 373.53-21.79 373.9-22.92 374.52-23.77 375.14-24.61 375.97-25.09 376.8-25.56 377.75-25.56L377.75-25.56 398.21-25.56Q398.11-24.71 397.74-23.94 397.36-23.17 396.78-22.61 396.21-22.05 395.48-21.72 394.75-21.39 393.94-21.39L393.94-21.39 392.4-21.39Q392.87-21.04 393.32-20.51 393.77-19.97 394.12-19.26 394.48-18.55 394.68-17.71 394.89-16.87 394.89-15.89L394.89-15.89 394.89-6.15Q394.89-4.88 394.53-3.76 394.16-2.64 393.52-1.81 392.89-0.98 392.05-0.49 391.21 0 390.25 0L390.25 0 377.75 0Q376.8 0 375.97-0.49 375.14-0.98 374.52-1.81 373.9-2.64 373.53-3.76 373.16-4.88 373.16-6.15L373.16-6.15ZM379-4.17L389.06-4.17 389.06-21.39 379-21.39 379-4.17ZM406.85-31.47L406.85-31.47Q406-31.47 405.25-31.79 404.51-32.1 403.95-32.67 403.39-33.23 403.07-33.97 402.75-34.72 402.75-35.57L402.75-35.57Q402.75-36.43 403.07-37.17 403.39-37.92 403.95-38.48 404.51-39.04 405.25-39.37 406-39.7 406.85-39.7L406.85-39.7Q407.71-39.7 408.45-39.37 409.2-39.04 409.76-38.48 410.32-37.92 410.65-37.17 410.98-36.43 410.98-35.57L410.98-35.57Q410.98-34.72 410.65-33.97 410.32-33.23 409.76-32.67 409.2-32.1 408.44-31.79 407.68-31.47 406.85-31.47ZM404-6.2L404-25.56 409.83-25.56 409.83-4.17 415.06-4.17Q414.98-3.32 414.6-2.55 414.23-1.78 413.65-1.22 413.08-0.66 412.35-0.33 411.61 0 410.81 0L410.81 0 408.66 0Q407.71 0 406.85-0.49 406-0.98 405.36-1.82 404.73-2.66 404.36-3.78 404-4.91 404-6.2L404-6.2ZM419.23-6.2L419.23-19.36Q419.23-20.65 419.59-21.78 419.96-22.9 420.58-23.74 421.21-24.58 422.06-25.07 422.91-25.56 423.87-25.56L423.87-25.56 436.71-25.56Q437.66-25.56 438.5-25.07 439.34-24.58 439.98-23.74 440.61-22.9 440.98-21.78 441.35-20.65 441.35-19.36L441.35-19.36 441.35-14.82 435.51-14.82 435.51-21.39 425.04-21.39 425.04-4.17 442.13-4.17Q442.03-3.32 441.65-2.56 441.27-1.81 440.7-1.25 440.13-0.68 439.39-0.35 438.66-0.02 437.86 0L437.86 0 423.87 0Q422.91 0.02 422.06-0.46 421.21-0.95 420.58-1.79 419.96-2.64 419.59-3.77 419.23-4.91 419.23-6.2L419.23-6.2ZM450.21-6.2L450.21-19.36Q450.21-20.65 450.57-21.78 450.94-22.9 451.56-23.74 452.18-24.58 453.04-25.07 453.89-25.56 454.85-25.56L454.85-25.56 467.81-25.56Q468.76-25.56 469.6-25.07 470.45-24.58 471.08-23.74 471.72-22.9 472.08-21.78 472.45-20.65 472.45-19.36L472.45-19.36 472.45-11.23 456.04-11.23 456.04-4.17 473.96-4.17Q473.86-3.32 473.49-2.55 473.11-1.78 472.53-1.22 471.96-0.66 471.23-0.33 470.49 0 469.69 0L469.69 0 454.85 0Q453.89 0 453.04-0.49 452.18-0.98 451.56-1.82 450.94-2.66 450.57-3.78 450.21-4.91 450.21-6.2L450.21-6.2ZM456.04-14.65L466.61-14.65 466.61-21.39 456.04-21.39 456.04-14.65ZM478.57 0L488.83-27.03 494.69-27.03Q494.47-26.49 494.36-25.96 494.25-25.44 494.2-25.1L494.2-25.1Q494.13-24.19 494.49-23.46 494.86-22.73 495.48-22.06 496.1-21.39 496.92-20.73 497.74-20.07 498.59-19.34L498.59-19.34Q499.57-18.55 500.57-17.54 501.57-16.53 502.38-15.32 503.18-14.11 503.68-12.76 504.18-11.4 504.13-9.94L504.13-9.94Q504.09-8.91 503.7-7.97 503.3-7.03 502.67-6.29 502.04-5.54 501.19-5 500.35-4.47 499.42-4.22L499.42-4.22 508.5-4.22Q508.16-3.27 507.69-2.5 507.21-1.73 506.61-1.17 506.01-0.61 505.31-0.31 504.6 0 503.84 0L503.84 0 497.15 0Q496.03 0 495.28-0.35 494.54-0.71 494.11-1.29 493.69-1.88 493.53-2.65 493.37-3.42 493.44-4.25L493.44-4.25Q494.22-4.35 494.98-4.66 495.74-4.98 496.33-5.58 496.93-6.18 497.34-7.08 497.74-7.98 497.84-9.25L497.84-9.25Q497.93-10.25 497.64-11.13 497.35-12.01 496.86-12.79 496.37-13.57 495.74-14.28 495.1-14.99 494.49-15.65L494.49-15.65Q493.86-16.48 493.22-17.65 492.59-18.82 492.32-20.51L492.32-20.51 484.6 0 478.57 0ZM512.9-3.83L512.9-3.83Q512.9-4.69 513.21-5.44 513.53-6.2 514.08-6.76 514.63-7.32 515.39-7.64 516.14-7.96 517.02-7.96L517.02-7.96Q517.88-7.96 518.62-7.64 519.37-7.32 519.93-6.76 520.49-6.2 520.82-5.44 521.15-4.69 521.15-3.83L521.15-3.83Q521.15-2.76 520.92-1.83 520.69-0.9 520.25-0.02 519.81 0.85 519.18 1.75 518.56 2.64 517.76 3.61L517.76 3.61 514.97 7.1 512.68 6.01 514.9-0.29Q514-0.83 513.45-1.75 512.9-2.66 512.9-3.83ZM549.37 0L549.37 0Q549.46-0.85 549.84-1.61 550.22-2.37 550.79-2.94 551.37-3.52 552.1-3.85 552.83-4.17 553.64-4.17L553.64-4.17 562.6-4.17 562.6-10.11 549.81-16.48Q548.34-17.21 547.46-18.7 546.58-20.19 546.58-22.41L546.58-22.41 546.58-30.81Q546.58-32.1 546.94-33.24 547.29-34.38 547.91-35.22 548.54-36.06 549.37-36.54 550.2-37.01 551.15-37.01L551.15-37.01 564.65-37.01Q565.6-37.01 566.43-36.54 567.26-36.06 567.88-35.22 568.51-34.38 568.87-33.24 569.24-32.1 569.24-30.81L569.24-30.81 569.24-23.58 563.4-23.58 563.4-32.84 552.42-32.84 552.42-21.26 565.65-14.5Q566.29-14.18 566.8-13.62 567.31-13.06 567.68-12.32 568.04-11.57 568.24-10.67 568.43-9.77 568.43-8.79L568.43-8.79 568.43-6.15Q568.43-4.88 568.07-3.76 567.7-2.64 567.08-1.81 566.46-0.98 565.63-0.49 564.8 0 563.84 0L563.84 0 549.37 0ZM578.56 0L578.56-38.82 584.4-38.82 584.4-22.78Q585.08-24.1 586.1-24.83 587.11-25.56 588.3-25.56L588.3-25.56 595.65-25.56Q596.61-25.56 597.45-25.07 598.29-24.58 598.92-23.74 599.56-22.9 599.93-21.78 600.29-20.65 600.29-19.36L600.29-19.36 600.29-4.17 605.52-4.17Q605.42-3.32 605.04-2.55 604.66-1.78 604.1-1.22 603.54-0.66 602.81-0.33 602.07 0 601.29 0L601.29 0 599.12 0Q598.17 0 597.31-0.49 596.46-0.98 595.82-1.82 595.19-2.66 594.82-3.78 594.46-4.91 594.46-6.2L594.46-6.2 594.46-21.39 584.4-21.39 584.4 0 578.56 0ZM609.69-6.13L609.69-18.68Q609.69-20.14 610.09-21.41 610.49-22.68 611.2-23.61 611.91-24.54 612.87-25.06 613.84-25.59 614.96-25.59L614.96-25.59 631.42-25.59 631.42-4.17 636.72-4.17Q636.62-3.32 636.24-2.55 635.86-1.78 635.29-1.22 634.71-0.66 633.98-0.33 633.25 0 632.44 0L632.44 0 629.83 0Q628.63 0 627.56-0.82 626.49-1.64 625.78-3.03L625.78-3.03Q625.07-1.64 624-0.82 622.92 0 621.72 0L621.72 0 614.33 0Q613.38 0 612.52-0.49 611.67-0.98 611.04-1.81 610.42-2.64 610.05-3.75 609.69-4.86 609.69-6.13L609.69-6.13ZM615.5-4.17L625.61-4.17 625.61-21.39 615.5-21.39 615.5-4.17ZM646.77-2.73L646.8 6.96Q646.8 8.25 646.44 9.39 646.09 10.52 645.47 11.36 644.84 12.21 644.01 12.71 643.18 13.21 642.23 13.21L642.23 13.21 640.96 13.21 640.96-25.56 658.07-25.56Q659.03-25.56 659.86-25.07 660.69-24.58 661.32-23.74 661.96-22.9 662.32-21.78 662.69-20.65 662.69-19.36L662.69-19.36 662.69-4.17 667.84-4.17Q667.74-3.32 667.36-2.55 666.99-1.78 666.41-1.22 665.84-0.66 665.11-0.33 664.37 0 663.57 0L663.57 0 650.7 0Q649.53 0 648.5-0.74 647.48-1.49 646.77-2.73L646.77-2.73ZM646.77-4.2L656.85-4.2 656.85-21.39 646.77-21.39 646.77-4.2ZM674.65-31.47L674.65-31.47Q673.8-31.47 673.05-31.79 672.31-32.1 671.74-32.67 671.18-33.23 670.87-33.97 670.55-34.72 670.55-35.57L670.55-35.57Q670.55-36.43 670.87-37.17 671.18-37.92 671.74-38.48 672.31-39.04 673.05-39.37 673.8-39.7 674.65-39.7L674.65-39.7Q675.5-39.7 676.25-39.37 676.99-39.04 677.55-38.48 678.12-37.92 678.45-37.17 678.78-36.43 678.78-35.57L678.78-35.57Q678.78-34.72 678.45-33.97 678.12-33.23 677.55-32.67 676.99-32.1 676.24-31.79 675.48-31.47 674.65-31.47ZM671.79-6.2L671.79-25.56 677.63-25.56 677.63-4.17 682.85-4.17Q682.78-3.32 682.4-2.55 682.02-1.78 681.45-1.22 680.88-0.66 680.14-0.33 679.41 0 678.6 0L678.6 0 676.46 0Q675.5 0 674.65-0.49 673.8-0.98 673.16-1.82 672.53-2.66 672.16-3.78 671.79-4.91 671.79-6.2L671.79-6.2ZM687.71 0L687.71-25.56 693.54-25.56 693.54-15.89 701.09-23.71Q701.87-24.61 702.71-25.1 703.55-25.59 704.73-25.59L704.73-25.59Q705.7-25.59 706.61-25.1 707.51-24.61 708.19-23.77 708.88-22.92 709.28-21.8 709.68-20.68 709.68-19.38L709.68-19.38 709.68-4.2 714.61-4.2Q714.52-3.32 714.14-2.56 713.76-1.81 713.18-1.23 712.61-0.66 711.88-0.33 711.15 0 710.34 0L710.34 0 708.44 0Q707.46 0 706.62-0.49 705.77-0.98 705.15-1.82 704.53-2.66 704.16-3.78 703.8-4.91 703.8-6.2L703.8-6.2 703.8-21.04 693.54-10.5 693.54 0 687.71 0ZM719.03-6.2L719.03-19.36Q719.03-20.65 719.4-21.78 719.76-22.9 720.38-23.74 721.01-24.58 721.86-25.07 722.72-25.56 723.67-25.56L723.67-25.56 740.76-25.56 740.76-4.17 745.91-4.17Q745.81-3.32 745.43-2.55 745.05-1.78 744.48-1.22 743.91-0.66 743.17-0.33 742.44 0 741.64 0L741.64 0 740.76 0 740.76 6.96Q740.76 8.25 740.39 9.39 740.03 10.52 739.39 11.36 738.76 12.21 737.93 12.71 737.1 13.21 736.14 13.21L736.14 13.21 724.3 13.21 724.3 8.98 734.92 8.98 734.92-2.71Q734.21-1.44 733.19-0.72 732.16 0 731.04 0L731.04 0 723.67 0Q722.72 0 721.86-0.49 721.01-0.98 720.38-1.82 719.76-2.66 719.4-3.78 719.03-4.91 719.03-6.2L719.03-6.2ZM724.84-4.17L734.92-4.17 734.92-21.39 724.84-21.39 724.84-4.17ZM766.53-6.15L766.53-30.81Q766.53-32.1 766.9-33.24 767.27-34.38 767.9-35.22 768.54-36.06 769.37-36.54 770.2-37.01 771.15-37.01L771.15-37.01 784.72-37.01Q785.67-37.01 786.52-36.54 787.36-36.06 787.99-35.22 788.63-34.38 788.99-33.24 789.36-32.1 789.36-30.81L789.36-30.81 789.36-21.26 783.55-21.26 783.55-32.89 772.32-32.89 772.32-4.17 791.12-4.17Q791.02-3.32 790.64-2.55 790.26-1.78 789.69-1.22 789.12-0.66 788.38-0.33 787.65 0 786.85 0L786.85 0 771.15 0Q770.2 0 769.37-0.49 768.54-0.98 767.9-1.81 767.27-2.64 766.9-3.76 766.53-4.88 766.53-6.15L766.53-6.15ZM798.76 0L798.76-38.82 804.59-38.82 804.59-22.78Q805.28-24.1 806.29-24.83 807.3-25.56 808.5-25.56L808.5-25.56 815.85-25.56Q816.8-25.56 817.64-25.07 818.48-24.58 819.12-23.74 819.75-22.9 820.12-21.78 820.49-20.65 820.49-19.36L820.49-19.36 820.49-4.17 825.71-4.17Q825.61-3.32 825.24-2.55 824.86-1.78 824.3-1.22 823.73-0.66 823-0.33 822.27 0 821.49 0L821.49 0 819.31 0Q818.36 0 817.51-0.49 816.65-0.98 816.02-1.82 815.38-2.66 815.02-3.78 814.65-4.91 814.65-6.2L814.65-6.2 814.65-21.39 804.59-21.39 804.59 0 798.76 0ZM829.88-6.15L829.88-19.36Q829.88-20.65 830.25-21.79 830.62-22.92 831.24-23.77 831.86-24.61 832.69-25.09 833.52-25.56 834.47-25.56L834.47-25.56 854.93-25.56Q854.83-24.71 854.46-23.94 854.08-23.17 853.5-22.61 852.93-22.05 852.2-21.72 851.47-21.39 850.66-21.39L850.66-21.39 849.12-21.39Q849.59-21.04 850.04-20.51 850.49-19.97 850.84-19.26 851.2-18.55 851.4-17.71 851.61-16.87 851.61-15.89L851.61-15.89 851.61-6.15Q851.61-4.88 851.25-3.76 850.88-2.64 850.24-1.81 849.61-0.98 848.77-0.49 847.93 0 846.97 0L846.97 0 834.47 0Q833.52 0 832.69-0.49 831.86-0.98 831.24-1.81 830.62-2.64 830.25-3.76 829.88-4.88 829.88-6.15L829.88-6.15ZM835.72-4.17L845.78-4.17 845.78-21.39 835.72-21.39 835.72-4.17ZM863.57-31.47L863.57-31.47Q862.72-31.47 861.97-31.79 861.23-32.1 860.67-32.67 860.11-33.23 859.79-33.97 859.47-34.72 859.47-35.57L859.47-35.57Q859.47-36.43 859.79-37.17 860.11-37.92 860.67-38.48 861.23-39.04 861.97-39.37 862.72-39.7 863.57-39.7L863.57-39.7Q864.43-39.7 865.17-39.37 865.92-39.04 866.48-38.48 867.04-37.92 867.37-37.17 867.7-36.43 867.7-35.57L867.7-35.57Q867.7-34.72 867.37-33.97 867.04-33.23 866.48-32.67 865.92-32.1 865.16-31.79 864.4-31.47 863.57-31.47ZM860.72-6.2L860.72-25.56 866.55-25.56 866.55-4.17 871.78-4.17Q871.7-3.32 871.32-2.55 870.95-1.78 870.37-1.22 869.8-0.66 869.07-0.33 868.33 0 867.53 0L867.53 0 865.38 0Q864.43 0 863.57-0.49 862.72-0.98 862.08-1.82 861.45-2.66 861.08-3.78 860.72-4.91 860.72-6.2L860.72-6.2ZM875.95-6.2L875.95-19.36Q875.95-20.65 876.31-21.78 876.68-22.9 877.3-23.74 877.93-24.58 878.78-25.07 879.63-25.56 880.59-25.56L880.59-25.56 893.43-25.56Q894.38-25.56 895.22-25.07 896.07-24.58 896.7-23.74 897.33-22.9 897.7-21.78 898.07-20.65 898.07-19.36L898.07-19.36 898.07-14.82 892.23-14.82 892.23-21.39 881.76-21.39 881.76-4.17 898.85-4.17Q898.75-3.32 898.37-2.56 897.99-1.81 897.42-1.25 896.85-0.68 896.11-0.35 895.38-0.02 894.58 0L894.58 0 880.59 0Q879.63 0.02 878.78-0.46 877.93-0.95 877.3-1.79 876.68-2.64 876.31-3.77 875.95-4.91 875.95-6.2L875.95-6.2ZM906.93-6.2L906.93-19.36Q906.93-20.65 907.29-21.78 907.66-22.9 908.28-23.74 908.9-24.58 909.76-25.07 910.61-25.56 911.57-25.56L911.57-25.56 924.53-25.56Q925.48-25.56 926.32-25.07 927.17-24.58 927.8-23.74 928.44-22.9 928.8-21.78 929.17-20.65 929.17-19.36L929.17-19.36 929.17-11.23 912.76-11.23 912.76-4.17 930.68-4.17Q930.58-3.32 930.21-2.55 929.83-1.78 929.25-1.22 928.68-0.66 927.95-0.33 927.21 0 926.41 0L926.41 0 911.57 0Q910.61 0 909.76-0.49 908.9-0.98 908.28-1.82 907.66-2.66 907.29-3.78 906.93-4.91 906.93-6.2L906.93-6.2ZM912.76-14.65L923.33-14.65 923.33-21.39 912.76-21.39 912.76-14.65ZM935.29 0L945.55-27.03 951.41-27.03Q951.19-26.49 951.08-25.96 950.97-25.44 950.92-25.1L950.92-25.1Q950.85-24.19 951.21-23.46 951.58-22.73 952.2-22.06 952.82-21.39 953.64-20.73 954.46-20.07 955.31-19.34L955.31-19.34Q956.29-18.55 957.29-17.54 958.29-16.53 959.1-15.32 959.9-14.11 960.4-12.76 960.9-11.4 960.85-9.94L960.85-9.94Q960.81-8.91 960.42-7.97 960.02-7.03 959.39-6.29 958.76-5.54 957.91-5 957.07-4.47 956.14-4.22L956.14-4.22 965.23-4.22Q964.88-3.27 964.41-2.5 963.93-1.73 963.33-1.17 962.73-0.61 962.03-0.31 961.32 0 960.56 0L960.56 0 953.87 0Q952.75 0 952-0.35 951.26-0.71 950.83-1.29 950.41-1.88 950.25-2.65 950.09-3.42 950.16-4.25L950.16-4.25Q950.94-4.35 951.7-4.66 952.46-4.98 953.05-5.58 953.65-6.18 954.06-7.08 954.46-7.98 954.56-9.25L954.56-9.25Q954.65-10.25 954.36-11.13 954.07-12.01 953.58-12.79 953.09-13.57 952.46-14.28 951.82-14.99 951.21-15.65L951.21-15.65Q950.58-16.48 949.94-17.65 949.31-18.82 949.04-20.51L949.04-20.51 941.32 0 935.29 0Z" opacity="1" transform="matrix(1,0,0,1,0,0)" fill="#dcdcdc" class="slogan-text-1" data-fill-palette-color="secondary" id="text-1"></path></svg></g></svg></g></svg></g></svg></g><g transform="matrix(1,0,0,1,76.53311999999997,0)"><svg viewBox="0 0 244.43135999999998 94.93251324675325" height="94.93251324675325" width="244.43135999999998"><g><svg xmlns="http://www.w3.org/2000/svg" data-name="Layer 1" viewBox="11.5 34 77 32" x="8" y="0" height="94.93251324675325" width="228.43135999999998" class="icon-icon-0" data-fill-palette-color="accent" id="icon-0"><path d="M87.5 34h-75a1 1 0 0 0-1 1V65a1 1 0 0 0 1 1h75a1 1 0 0 0 1-1V35A1 1 0 0 0 87.5 34Zm-1 25H55.865a3.318 3.318 0 0 0-2.561-2.407l-2.334-9.336a1 1 0 0 0-1.94 0l-2.329 9.317A3.275 3.275 0 0 0 44.144 59H13.5V36h3v6.5a1 1 0 0 0 2 0V36h3v4a1 1 0 0 0 2 0V36h3v6.5a1 1 0 0 0 2 0V36h3v4a1 1 0 0 0 2 0V36h3v6.5a1 1 0 0 0 2 0V36h3v4a1 1 0 0 0 2 0V36h3v6.5a1 1 0 0 0 2 0V36h3v4a1 1 0 0 0 2 0V36h3v6.5a1 1 0 0 0 2 0V36h3v4a1 1 0 0 0 2 0V36h3v6.5a1 1 0 0 0 2 0V36h3v4a1 1 0 0 0 2 0V36h3v6.5a1 1 0 0 0 2 0V36h3v4a1 1 0 0 0 2 0V36h3Z" fill="#dcdcdc" data-fill-palette-color="accent"></path></svg></g></svg></g><g><rect width="0" height="6.4995754348544015" y="87.43293781189884" x="320.96448" fill="#dcdcdc" data-fill-palette-color="secondary"></rect><rect width="0" height="6.4995754348544015" y="87.43293781189884" x="76.53311999999997" fill="#dcdcdc" data-fill-palette-color="secondary"></rect></g></svg></g><defs></defs></svg><rect width="395.52" height="245.00325830508902" fill="none" stroke="none" visibility="hidden"></rect></g></svg></g></svg>